<svg width="35" height="35" viewBox="0 0 35 35" fill="none" xmlns="http://www.w3.org/2000/svg">
<g id="Group 1">
<circle id="Ellipse 1" cx="17.5" cy="17.5" r="17.5" fill="url(#paint0_linear_513_1901)" fill-opacity="0.1"/>
<g id="Group" filter="url(#filter0_d_513_1901)">
<path id="Vector" d="M12.9916 10C9.6824 10 7 12.0011 7 14.4694C7 15.8821 7.87906 17.1424 9.2514 17.9619L12.7367 20.6661V18.9364C12.82 18.9388 12.9058 18.9412 12.9891 18.9412C13.5728 18.9412 14.1375 18.8792 14.6711 18.7625C14.6687 18.7435 14.6664 18.7267 14.664 18.7077C14.645 18.5528 14.6355 18.3933 14.6355 18.236C14.6355 17.2068 15.05 16.2276 15.8339 15.3985C16.582 14.6099 17.6089 14.0143 18.8071 13.6807C18.8332 13.6736 18.8572 13.6665 18.8833 13.6594C18.371 11.5773 15.9291 10 12.9916 10ZM13.4585 16.7924H12.3578V15.7108H13.4585V16.7924ZM14.5163 13.4784C14.4878 13.5809 14.4496 13.6737 14.3971 13.7596C14.3447 13.8429 14.2852 13.9216 14.2161 13.9907C14.1447 14.0621 14.0683 14.1264 13.985 14.186C13.9017 14.2526 13.8206 14.3122 13.7468 14.3694C13.673 14.4266 13.6087 14.4837 13.5562 14.5457C13.5038 14.6052 13.4633 14.6743 13.4324 14.7481C13.4013 14.8219 13.3871 14.9125 13.3871 15.015V15.1865H12.4269V15.015C12.4269 14.7625 12.4698 14.5409 12.5555 14.348C12.6412 14.1551 12.7842 13.9883 12.9795 13.8429C13.0509 13.7905 13.1176 13.7404 13.1819 13.6927C13.2486 13.6427 13.3081 13.5926 13.3606 13.5425C13.4154 13.4901 13.4583 13.4353 13.4916 13.3781C13.525 13.3186 13.5416 13.2566 13.5416 13.1852C13.5416 13.0398 13.4821 12.9304 13.3653 12.8587C13.2486 12.7873 13.1152 12.7491 12.9651 12.7491C12.8578 12.7491 12.7577 12.7634 12.6625 12.7921C12.5695 12.8206 12.4839 12.8564 12.4053 12.9017C12.3291 12.947 12.2575 12.9923 12.1956 13.0422C12.1337 13.0922 12.0789 13.1375 12.0383 13.1803L11.4212 12.5275C11.4831 12.4585 11.5616 12.3821 11.6594 12.2988C11.7571 12.2179 11.8739 12.1415 12.0072 12.0701C12.1406 12.001 12.2931 11.9415 12.4623 11.8938C12.6338 11.8461 12.8244 11.8247 13.0341 11.8247C13.2486 11.8247 13.451 11.8532 13.6367 11.913C13.8249 11.9725 13.9846 12.0558 14.1203 12.1702C14.256 12.2822 14.3633 12.4203 14.4394 12.58C14.5156 12.742 14.5562 12.923 14.5562 13.1231C14.5591 13.2568 14.5447 13.3761 14.5163 13.4784Z" fill="#00F5FC"/>
<path id="Vector_2" d="M21.0083 13.7639C20.2697 13.7639 19.5622 13.864 18.9094 14.045C16.6341 14.6788 15.0166 16.3154 15.0166 18.2333C15.0166 18.3761 15.0261 18.5192 15.0427 18.6573C15.3286 20.9253 17.8897 22.7027 21.0084 22.7027C21.0941 22.7027 21.1776 22.7003 21.2609 22.6979V24.4037L23.7743 22.4547L24.1269 22.1807L24.6249 21.7947C26.0686 20.9775 27.0002 19.6863 27.0002 18.2307C26.9978 15.7652 24.3152 13.7639 21.0086 13.7639L21.0083 13.7639ZM18.4997 18.8528C18.0351 18.8528 17.6612 18.4765 17.6612 18.0143C17.6612 17.5521 18.0375 17.1757 18.4997 17.1757C18.9643 17.1757 19.3382 17.5521 19.3382 18.0143C19.3382 18.4763 18.9643 18.8528 18.4997 18.8528ZM21.0083 18.8528C20.5437 18.8528 20.1698 18.4765 20.1698 18.0143C20.1698 17.5521 20.5461 17.1757 21.0083 17.1757C21.4705 17.1757 21.8468 17.5521 21.8468 18.0143C21.8468 18.4763 21.4705 18.8528 21.0083 18.8528ZM23.5145 18.8528C23.0523 18.8528 22.676 18.4765 22.676 18.0143C22.676 17.5521 23.0523 17.1757 23.5145 17.1757C23.9791 17.1757 24.3531 17.5521 24.3531 18.0143C24.3531 18.4763 23.9791 18.8528 23.5145 18.8528Z" fill="#00F5FC"/>
</g>
</g>
<defs>
<filter id="filter0_d_513_1901" x="5.5" y="8.5" width="24" height="18.4036" filterUnits="userSpaceOnUse" color-interpolation-filters="sRGB">
<feFlood flood-opacity="0" result="BackgroundImageFix"/>
<feColorMatrix in="SourceAlpha" type="matrix" values="0 0 0 0 0 0 0 0 0 0 0 0 0 0 0 0 0 0 127 0" result="hardAlpha"/>
<feOffset dx="0.5" dy="0.5"/>
<feGaussianBlur stdDeviation="1"/>
<feComposite in2="hardAlpha" operator="out"/>
<feColorMatrix type="matrix" values="0 0 0 0 0 0 0 0 0 0.960784 0 0 0 0 0.988235 0 0 0 0.3 0"/>
<feBlend mode="normal" in2="BackgroundImageFix" result="effect1_dropShadow_513_1901"/>
<feBlend mode="normal" in="SourceGraphic" in2="effect1_dropShadow_513_1901" result="shape"/>
</filter>
<linearGradient id="paint0_linear_513_1901" x1="17.5" y1="0" x2="17.5" y2="35" gradientUnits="userSpaceOnUse">
<stop stop-color="#BB9696"/>
<stop offset="1"/>
</linearGradient>
</defs>
</svg>
