<svg width="36" height="35" viewBox="0 0 36 35" fill="none" xmlns="http://www.w3.org/2000/svg">
<g id="Group 1">
<circle id="Ellipse 1" cx="18" cy="17.5" r="17.5" fill="url(#paint0_linear_513_1908)" fill-opacity="0.1"/>
<g id="Group" filter="url(#filter0_d_513_1908)">
<path id="Vector" d="M22.7871 17.5C24.695 17.3055 25.834 14.7673 25.834 12.3438C25.834 12.2816 25.8093 12.222 25.7653 12.178C25.7214 12.1341 25.6618 12.1094 25.5996 12.1094H23.7082C23.7246 11.4671 23.7246 10.8343 23.7246 10.2344C23.7246 10.1722 23.6999 10.1126 23.656 10.0686C23.612 10.0247 23.5524 10 23.4902 10H13.1777C13.0483 10 12.9434 10.1049 12.9434 10.2344C12.9434 10.8343 12.9434 11.4671 12.9598 12.1094H11.0684C10.9389 12.1094 10.834 12.2143 10.834 12.3438C10.834 14.7672 11.973 17.3031 13.8809 17.4861C14.5207 18.8314 15.5941 19.7595 17.3965 19.8298V20.7673H17.1621C17.0884 20.7673 17.0189 20.8021 16.9746 20.8611L16.3418 21.7188H15.0527C14.9233 21.7188 14.8184 21.8238 14.8184 21.9532V23.1251H14.1152C14.0369 23.1255 13.9638 23.1651 13.9207 23.2306L12.9832 24.6368C12.9376 24.7072 12.9332 24.7966 12.9715 24.8712C13.0109 24.9492 13.0904 24.9989 13.1777 25.0001H23.4902C23.5767 24.9999 23.6559 24.9522 23.6965 24.8759C23.7348 24.8013 23.7304 24.7119 23.6848 24.6415L22.7473 23.2353C22.7053 23.168 22.6321 23.1266 22.5527 23.1251H21.8496V21.9532C21.8496 21.8911 21.8249 21.8314 21.781 21.7875C21.737 21.7435 21.6774 21.7188 21.6152 21.7188H20.3262L19.6934 20.8751C19.6491 20.8161 19.5796 20.7813 19.5059 20.7813H19.2715V19.8438C21.0668 19.7595 22.1378 18.8313 22.7871 17.5001L22.7871 17.5ZM25.3652 12.5781C25.2996 14.5539 24.4277 16.6233 22.9957 16.9774C23.4762 15.6931 23.6426 14.125 23.6989 12.5781H25.3652ZM11.3027 12.5781H12.9738C13.0277 14.1227 13.1942 15.693 13.6769 16.975C12.2543 16.6188 11.373 14.5539 11.3027 12.5781ZM18.334 15.9861L17.0285 16.9822C16.9876 17.0139 16.9374 17.0312 16.8856 17.0314C16.8377 17.0313 16.7912 17.0165 16.752 16.9892C16.6682 16.9314 16.6314 16.8264 16.6605 16.729L17.1667 15.0884L15.8472 14.0805H15.8473C15.7721 14.0183 15.7433 13.916 15.7751 13.8237C15.8069 13.7314 15.8926 13.6684 15.9902 13.6658H17.6074L18.0996 12.0415C18.1288 11.9415 18.2204 11.8728 18.3245 11.8728C18.4288 11.8728 18.5204 11.9415 18.5496 12.0415L19.0512 13.6657L20.6777 13.6658C20.7778 13.6661 20.8666 13.7298 20.8988 13.8245C20.9312 13.9192 20.8998 14.0239 20.8207 14.0852L19.5059 15.0931L20.0121 16.7337C20.0412 16.8311 20.0043 16.9361 19.9207 16.9939C19.8384 17.0541 19.7265 17.0541 19.6442 16.9939L18.334 15.9861Z" fill="#00F5FC"/>
</g>
</g>
<defs>
<filter id="filter0_d_513_1908" x="9.33398" y="8.5" width="19" height="19.0001" filterUnits="userSpaceOnUse" color-interpolation-filters="sRGB">
<feFlood flood-opacity="0" result="BackgroundImageFix"/>
<feColorMatrix in="SourceAlpha" type="matrix" values="0 0 0 0 0 0 0 0 0 0 0 0 0 0 0 0 0 0 127 0" result="hardAlpha"/>
<feOffset dx="0.5" dy="0.5"/>
<feGaussianBlur stdDeviation="1"/>
<feComposite in2="hardAlpha" operator="out"/>
<feColorMatrix type="matrix" values="0 0 0 0 0 0 0 0 0 0.960784 0 0 0 0 0.988235 0 0 0 0.3 0"/>
<feBlend mode="normal" in2="BackgroundImageFix" result="effect1_dropShadow_513_1908"/>
<feBlend mode="normal" in="SourceGraphic" in2="effect1_dropShadow_513_1908" result="shape"/>
</filter>
<linearGradient id="paint0_linear_513_1908" x1="18" y1="0" x2="18" y2="35" gradientUnits="userSpaceOnUse">
<stop stop-color="#BB9696"/>
<stop offset="1"/>
</linearGradient>
</defs>
</svg>
