<svg width="212" height="39" viewBox="0 0 212 39" fill="none" xmlns="http://www.w3.org/2000/svg">
<g id="Logo_vgroup">
<g id="Layer1 0 FILL">
<g id="Group" filter="url(#filter0_d_513_1763)">
<path id="Trazado 1" d="M12.2375 20.2252C12.2375 19.5902 12.0546 18.9694 11.7119 18.4413C11.3692 17.9133 10.8821 17.5017 10.3122 17.2587C9.74236 17.0157 9.11529 16.9521 8.51031 17.076C7.90533 17.1999 7.34962 17.5057 6.91346 17.9547C6.4773 18.4038 6.18026 18.9759 6.05993 19.5988C5.93959 20.2217 6.00135 20.8673 6.2374 21.454C6.47345 22.0407 6.87319 22.5422 7.38606 22.895C7.89894 23.2478 8.50192 23.4362 9.11875 23.4362C9.94381 23.4292 10.7332 23.0887 11.3166 22.4881C11.9 21.8874 12.2308 21.0747 12.2375 20.2252Z" fill="#FFD833" fill-opacity="0.9"/>
</g>
<g id="Group_2" filter="url(#filter1_d_513_1763)">
<path id="Trazado 2" d="M93.9986 6.71173H89.3336V18.949C88.9618 19.2506 88.5534 19.5012 88.1188 19.6942C87.6465 19.907 87.1384 20.0229 86.623 20.0356C85.6269 20.0177 84.8943 19.7151 84.4252 19.1278C83.9561 18.5404 83.7259 17.7727 83.7346 16.8247V6.71173H79.1084V17.0676C79.1171 18.4589 79.3131 19.5993 79.6963 20.4888C80.0186 21.2814 80.5179 21.9847 81.1537 22.5415C81.7037 22.9958 82.3391 23.3277 83.02 23.5165C83.5953 23.6987 84.1947 23.7872 84.7966 23.7788C85.7731 23.7824 86.7397 23.5762 87.6345 23.1735C88.3835 22.8287 89.0737 22.3621 89.6789 21.7917L90.3956 23.424H94.2672C94.1347 22.8943 94.0572 22.3516 94.036 21.8051C94.0032 21.1641 93.9907 20.4187 93.9983 19.5691V6.71173M67.7583 6.33009C66.6089 6.32493 65.4694 6.54813 64.4021 6.98746C63.4171 7.39541 62.5252 8.00963 61.7828 8.79117C61.0088 9.60887 60.4043 10.5801 60.0062 11.6459C59.5865 12.7811 59.3697 13.9851 59.3662 15.1998C59.353 16.4535 59.5834 17.6973 60.0438 18.8581C60.4781 19.9396 61.1421 20.9073 61.9869 21.6904C62.7094 22.3894 63.5675 22.9228 64.5048 23.2556C65.5553 23.6163 66.6568 23.7941 67.764 23.7818C68.9459 23.7901 70.1182 23.5623 71.2159 23.111C72.2126 22.6879 73.118 22.0658 73.8799 21.2805C74.6279 20.4714 75.207 19.513 75.5813 18.4646C75.9805 17.3485 76.1797 16.1671 76.1692 14.9777C76.1785 13.8183 75.9969 12.6655 75.632 11.5686C75.2804 10.5508 74.7278 9.6192 74.0089 8.83247C73.2603 8.01781 72.3426 7.38783 71.3244 6.98958C70.1855 6.54483 68.9762 6.32192 67.7582 6.33221M67.6814 10.0694C68.8571 10.0962 69.7687 10.5568 70.4164 11.4512C71.064 12.3456 71.3878 13.556 71.3878 15.0826C71.4011 15.9627 71.2714 16.8389 71.0041 17.675C70.7834 18.3767 70.3707 18.9978 69.8154 19.4639C69.2341 19.9209 68.5197 20.162 67.7883 20.1481C66.6213 20.1212 65.7222 19.6517 65.0909 18.7394C64.4596 17.8272 64.1313 16.6077 64.1062 15.0812C64.0935 14.2088 64.2277 13.3408 64.5029 12.5156C64.7201 11.8201 65.1212 11.2006 65.6613 10.7267C66.2484 10.2897 66.9569 10.0591 67.6814 10.0694ZM51.6791 11.7777C52.1489 11.3646 52.6745 11.0236 53.2393 10.7656C53.6902 10.5622 54.178 10.4604 54.6702 10.4671C54.9672 10.4653 55.2632 10.5003 55.552 10.5714C55.9628 10.6869 56.3578 10.8551 56.7277 11.0722L58.4014 7.11138C58.0358 6.84627 57.6303 6.64482 57.2012 6.51509C56.7892 6.39614 56.3637 6.33399 55.9357 6.33027C55.1295 6.32999 54.3339 6.51927 53.6095 6.88367C52.8322 7.30296 52.1141 7.82957 51.4752 8.44889L50.9641 6.7248H47.0406V23.437H51.6737V11.7772M29.8624 9.55445C29.3823 10.4845 29.1322 11.5221 29.1343 12.5754C29.1363 13.6286 29.3904 14.6652 29.8741 15.5933C30.353 16.5003 31.0885 17.2359 31.983 17.7025C31.351 18.0406 30.8053 18.5273 30.3903 19.1232C30.024 19.7024 29.8326 20.3803 29.8401 21.0715C29.8228 21.8079 30.108 22.4922 30.6959 23.1242C31.2869 23.7612 32.0554 24.1935 32.8953 24.3615C33.6077 24.515 34.3272 24.6309 35.0511 24.7089C35.5956 24.7695 36.2642 24.8748 37.0571 25.0249C37.7543 25.1265 38.4357 25.321 39.0842 25.6033C39.3032 25.6957 39.5006 25.8349 39.6634 26.0118L39.6764 26.0252H39.7865C39.8037 26.1385 39.8198 26.2577 39.8379 26.38C39.9001 26.8028 39.9388 27.2288 39.9539 27.6561H44.9774C44.9862 27.2358 44.9946 26.8088 45.0021 26.38V26.064C45.0021 25.8971 45.0021 25.7435 44.9905 25.6035H44.9644C44.8993 24.924 44.626 24.2834 44.184 23.7744C43.6171 23.1519 42.9107 22.682 42.1265 22.406C41.2609 22.0933 40.3683 21.8663 39.4609 21.7278C38.515 21.5697 37.6291 21.4296 36.8034 21.3075C36.1032 21.2326 35.4132 21.0781 34.7459 20.8469C34.218 20.6482 33.9494 20.3455 33.9401 19.9391C33.9306 19.7388 33.9479 19.5382 33.9915 19.3428C34.0456 19.1413 34.1317 18.9504 34.2463 18.7779C34.5785 18.8912 34.9219 18.9662 35.2701 19.0016C35.6108 19.0353 36.0027 19.053 36.4457 19.0545C37.6071 19.0592 38.7564 18.8126 39.8193 18.3308C40.8033 17.8709 41.6569 17.16 42.2995 16.2655C42.9273 15.3395 43.2639 14.2374 43.2638 13.1082C43.2687 12.2849 43.1275 11.4676 42.8471 10.6965C42.6012 10.0582 42.2522 9.46738 41.8148 8.94898C42.1521 8.83297 42.5085 8.78783 42.8631 8.81623C43.2718 8.83972 43.678 8.89704 44.0778 8.98763L45.0002 5.58023C43.5398 5.45595 42.409 5.52156 41.6079 5.77705C40.8806 5.99107 40.2171 6.38931 39.6778 6.93539C39.6181 6.99164 39.5489 7.0361 39.4736 7.06654C39.4222 7.10185 39.3505 7.08896 39.2564 7.02771C38.8323 6.78507 38.3817 6.59493 37.9142 6.46125C37.3126 6.30473 36.6946 6.22511 36.074 6.22418C34.4804 6.24207 33.1725 6.56257 32.1501 7.1857C31.1863 7.73803 30.3934 8.55905 29.8624 9.55445ZM37.4162 10.2782C37.8129 10.554 38.1339 10.9303 38.3485 11.3709C38.555 11.7816 38.6646 12.2366 38.6685 12.699C38.6598 13.6287 38.4083 14.3171 37.9141 14.7643C37.4092 15.228 36.75 15.4731 36.0739 15.4485C35.2302 15.4237 34.5912 15.1255 34.1568 14.5541C33.6986 13.9655 33.4585 13.2285 33.4792 12.4745C33.5034 11.5712 33.7418 10.9088 34.1945 10.4874C34.644 10.0532 35.2406 9.81726 35.8568 9.83C36.4082 9.8181 36.9509 9.97361 37.417 10.2771M27.5241 6.71138H23.024L19.2277 17.4355H19.1639L15.3298 6.71173H10.5518L17.3902 23.5417H20.7203L27.5255 6.71173M112.496 10.3043C111.829 9.02988 110.786 8.00668 109.517 7.38252C108.188 6.6869 106.523 6.33609 104.521 6.33009C103.292 6.32566 102.064 6.42538 100.851 6.62824C99.8329 6.82795 98.8294 7.10207 97.8486 7.44854V27.6603H102.511V23.4238C102.866 23.5434 103.229 23.6355 103.597 23.6995C103.953 23.7506 104.312 23.777 104.671 23.7786C106.443 23.7607 107.987 23.3573 109.304 22.5682C110.592 21.805 111.652 20.6949 112.372 19.3573C113.113 17.9473 113.496 16.3673 113.485 14.7643C113.485 13.055 113.152 11.5683 112.487 10.3041M103.207 10.2773C103.455 10.2525 103.75 10.2395 104.09 10.2385C105.411 10.2385 106.489 10.636 107.324 11.4311C108.175 12.2122 108.609 13.4142 108.627 15.0371C108.627 16.5367 108.277 17.7342 107.578 18.6296C106.863 19.5419 105.815 20.011 104.435 20.0369C104.094 20.0431 103.754 20.0081 103.421 19.9325C103.11 19.8686 102.802 19.785 102.501 19.6821V10.3834C102.741 10.3387 102.975 10.3043 103.213 10.2775L103.207 10.2773Z" fill="white" fill-opacity="0.9"/>
</g>
</g>
<g id="Group_3" filter="url(#filter2_d_513_1763)">
<path id="Layer1 0 1 STROKES" d="M124.828 4V28.7009" stroke="#FCFAFA" stroke-opacity="0.9" stroke-linecap="square" stroke-linejoin="round"/>
</g>
<g id="Grupo 4">
<g id="Group_4" filter="url(#filter3_d_513_1763)">
<path id="Trazado 3" d="M139.083 13.1576L139.185 13.7912C139.011 13.8306 138.835 13.8521 138.658 13.8552C138.455 13.8662 138.252 13.8237 138.07 13.7317C137.941 13.6589 137.84 13.5447 137.78 13.4067C137.706 13.1311 137.677 12.8448 137.695 12.5594V10.1255H137.184V9.56804H137.695V8.52444L138.389 8.09073V9.56804H139.09V10.1255H138.389V12.6C138.381 12.7324 138.393 12.8652 138.426 12.9935C138.45 13.0526 138.493 13.1018 138.546 13.1336C138.62 13.1727 138.702 13.191 138.784 13.1866C138.884 13.1834 138.984 13.1737 139.083 13.1576Z" fill="white" fill-opacity="0.9"/>
</g>
<g id="Group_5" filter="url(#filter4_d_513_1763)">
<path id="Trazado 4" d="M141.07 13.7993V9.56874H141.697V10.2113C141.802 9.98249 141.953 9.77925 142.14 9.61499C142.271 9.51909 142.427 9.46705 142.588 9.466C142.842 9.47249 143.09 9.55256 143.303 9.69707L143.064 10.3619C142.91 10.2663 142.733 10.2149 142.553 10.2129C142.405 10.2115 142.261 10.2612 142.143 10.3541C142.018 10.4528 141.927 10.5902 141.884 10.7461C141.804 11.0171 141.764 11.2992 141.767 11.5825V13.7977L141.07 13.7993Z" fill="white" fill-opacity="0.9"/>
</g>
<g id="Group_6" filter="url(#filter5_d_513_1763)">
<path id="Trazado 5" d="M147.715 13.2769C147.494 13.4786 147.242 13.6405 146.969 13.7555C146.724 13.8492 146.464 13.8961 146.202 13.8941C145.826 13.9199 145.454 13.7986 145.161 13.5543C145.042 13.4451 144.949 13.3106 144.886 13.1603C144.823 13.0099 144.793 12.8473 144.797 12.6837C144.796 12.491 144.841 12.301 144.928 12.1303C145.014 11.9596 145.14 11.8133 145.295 11.7043C145.448 11.5983 145.617 11.5188 145.796 11.4688C146 11.4196 146.207 11.3837 146.415 11.3615C146.836 11.3211 147.252 11.2383 147.658 11.1144V10.928C147.669 10.8165 147.658 10.7036 147.624 10.5971C147.59 10.4905 147.534 10.3926 147.461 10.3101C147.234 10.1325 146.951 10.0461 146.667 10.0671C146.414 10.0479 146.161 10.1095 145.943 10.2436C145.762 10.4062 145.64 10.6276 145.597 10.8711L144.917 10.7758C144.962 10.5122 145.067 10.2632 145.222 10.0484C145.384 9.84926 145.597 9.70146 145.838 9.62205C146.138 9.51789 146.453 9.4675 146.77 9.47307C147.06 9.46363 147.349 9.50701 147.624 9.60122C147.804 9.65307 147.965 9.75668 148.089 9.89983C148.213 10.043 148.295 10.2197 148.325 10.4092C148.354 10.6285 148.365 10.8499 148.359 11.0711V12.0266C148.348 12.4491 148.363 12.8718 148.404 13.2923C148.434 13.4703 148.493 13.6416 148.579 13.7991H147.855C147.778 13.6352 147.731 13.4583 147.715 13.2769ZM147.657 11.6759C147.289 11.8104 146.907 11.9015 146.519 11.9472C146.311 11.9712 146.107 12.0213 145.911 12.0962C145.816 12.1379 145.732 12.2038 145.669 12.2877C145.605 12.3716 145.564 12.4708 145.548 12.5759C145.531 12.681 145.542 12.7885 145.577 12.8885C145.613 12.9884 145.672 13.0775 145.75 13.1472C145.926 13.2871 146.146 13.3555 146.368 13.3394C146.618 13.344 146.865 13.2813 147.084 13.1576C147.284 13.0459 147.445 12.8723 147.544 12.6612C147.631 12.4332 147.67 12.1888 147.657 11.9442L147.657 11.6759Z" fill="white" fill-opacity="0.9"/>
</g>
<g id="Group_7" filter="url(#filter6_d_513_1763)">
<path id="Trazado 6" d="M150.756 13.7993V9.56874H151.383V10.1649C151.522 9.94156 151.715 9.75967 151.944 9.63728C152.173 9.51488 152.428 9.45626 152.686 9.46724C152.92 9.46503 153.153 9.51168 153.369 9.6044C153.554 9.67872 153.715 9.80348 153.835 9.96521C153.943 10.1245 154.016 10.3053 154.051 10.4958C154.084 10.7263 154.097 10.9592 154.09 11.192V13.7933H153.395V11.2265C153.404 11.0047 153.377 10.7828 153.313 10.5705C153.258 10.4247 153.156 10.3027 153.024 10.2247C152.877 10.1358 152.708 10.0909 152.537 10.095C152.254 10.0918 151.98 10.1982 151.77 10.3931C151.555 10.5869 151.447 10.9546 151.447 11.4962V13.8069L150.756 13.7993Z" fill="white" fill-opacity="0.9"/>
</g>
<g id="Group_8" filter="url(#filter7_d_513_1763)">
<path id="Trazado 7" d="M156.198 12.5368L156.885 12.4251C156.908 12.6791 157.025 12.9143 157.211 13.0824C157.425 13.2451 157.687 13.3253 157.953 13.3091C158.206 13.3294 158.458 13.2582 158.665 13.1078C158.736 13.0527 158.794 12.9814 158.835 12.8995C158.875 12.8175 158.896 12.7271 158.897 12.6353C158.898 12.5588 158.88 12.4833 158.844 12.4163C158.808 12.3493 158.756 12.2932 158.692 12.2537C158.466 12.1425 158.226 12.0609 157.98 12.0108C157.617 11.9274 157.261 11.8121 156.917 11.6664C156.736 11.5829 156.582 11.4464 156.475 11.2738C156.369 11.1012 156.314 10.9001 156.317 10.6955C156.315 10.5124 156.359 10.332 156.443 10.1707C156.525 10.0121 156.642 9.87535 156.785 9.77122C156.919 9.6765 157.069 9.60607 157.227 9.56293C157.422 9.50379 157.625 9.47464 157.829 9.47643C158.118 9.47259 158.406 9.52308 158.677 9.62542C158.89 9.69832 159.078 9.83323 159.217 10.0138C159.345 10.2099 159.428 10.4338 159.457 10.6681L158.776 10.765C158.758 10.5643 158.663 10.379 158.513 10.2492C158.33 10.1163 158.108 10.0516 157.884 10.0658C157.645 10.0445 157.405 10.1014 157.199 10.2284C157.138 10.2709 157.087 10.3278 157.052 10.3944C157.016 10.4611 156.997 10.5355 156.995 10.6115C156.994 10.7027 157.024 10.7914 157.08 10.862C157.15 10.9498 157.243 11.0159 157.347 11.0528C157.416 11.0796 157.621 11.141 157.962 11.2362C158.312 11.3252 158.656 11.4362 158.993 11.5686C159.178 11.6474 159.337 11.7782 159.452 11.9458C159.568 12.128 159.626 12.3425 159.619 12.5599C159.618 12.8006 159.547 13.0355 159.414 13.2337C159.272 13.4521 159.071 13.6226 158.835 13.7241C158.561 13.8438 158.265 13.9028 157.967 13.8971C157.432 13.8971 157.025 13.7833 156.746 13.5557C156.444 13.2995 156.248 12.9352 156.197 12.5361L156.198 12.5368Z" fill="white" fill-opacity="0.9"/>
</g>
<g id="Group_9" filter="url(#filter8_d_513_1763)">
<path id="Trazado 8" d="M161.922 13.7995V10.1264H161.307V9.56874H161.922V9.12161C161.913 8.9077 161.938 8.69372 161.996 8.48807C162.064 8.30394 162.188 8.14727 162.349 8.0413C162.564 7.91412 162.811 7.85402 163.059 7.8683C163.277 7.87065 163.495 7.89459 163.709 7.9398L163.604 8.56592C163.469 8.54001 163.332 8.52655 163.195 8.52567C163.033 8.50893 162.872 8.55875 162.746 8.66424C162.641 8.81548 162.594 9.00132 162.614 9.18604V9.57704H163.415V10.1345H162.614V13.8076L161.922 13.7995Z" fill="white" fill-opacity="0.9"/>
</g>
<g id="Group_10" filter="url(#filter9_d_513_1763)">
<path id="Trazado 9" d="M165.014 11.6833C165.014 10.9006 165.225 10.3193 165.648 9.94369C166.007 9.62708 166.468 9.45918 166.941 9.47255C167.198 9.46311 167.454 9.50918 167.692 9.60778C167.931 9.70638 168.146 9.85532 168.325 10.045C168.684 10.4256 168.864 10.9518 168.864 11.6236C168.884 12.0654 168.803 12.5058 168.625 12.9086C168.47 13.2168 168.229 13.4702 167.933 13.636C167.629 13.8079 167.288 13.8967 166.941 13.8939C166.683 13.905 166.425 13.86 166.184 13.7619C165.944 13.6638 165.726 13.5147 165.545 13.3244C165.191 12.9449 165.014 12.3979 165.014 11.6833ZM165.729 11.6833C165.729 12.2259 165.844 12.6319 166.074 12.9013C166.181 13.03 166.315 13.1332 166.464 13.204C166.614 13.2747 166.777 13.3113 166.942 13.3113C167.107 13.3113 167.27 13.2747 167.42 13.204C167.57 13.1332 167.703 13.03 167.811 12.9013C168.04 12.6307 168.154 12.2177 168.154 11.6625C168.154 11.1397 168.039 10.7422 167.808 10.4699C167.7 10.343 167.568 10.2413 167.419 10.1716C167.27 10.1019 167.108 10.0659 166.944 10.0659C166.781 10.0659 166.619 10.1019 166.47 10.1716C166.321 10.2413 166.188 10.343 166.081 10.4699C165.845 10.7373 165.728 11.1417 165.729 11.6833Z" fill="white" fill-opacity="0.9"/>
</g>
<g id="Group_11" filter="url(#filter10_d_513_1763)">
<path id="Trazado 10" d="M170.987 13.7993V9.56874H171.614V10.2113C171.716 9.98289 171.864 9.77957 172.049 9.61499C172.179 9.51908 172.335 9.46704 172.496 9.466C172.754 9.47131 173.004 9.55141 173.22 9.69707L172.98 10.3619C172.825 10.2658 172.649 10.2144 172.469 10.2129C172.321 10.2118 172.176 10.2614 172.059 10.3541C171.934 10.4528 171.843 10.5902 171.8 10.7461C171.719 11.0171 171.68 11.2992 171.682 11.5825V13.7977L170.987 13.7993Z" fill="white" fill-opacity="0.9"/>
</g>
<g id="Group_12" filter="url(#filter11_d_513_1763)">
<path id="Trazado 11" d="M174.949 13.8V9.56928H175.572V10.1649C175.702 9.95828 175.878 9.78698 176.086 9.66549C176.309 9.53696 176.562 9.47161 176.817 9.47608C177.08 9.46502 177.341 9.53284 177.567 9.67131C177.761 9.79981 177.906 9.99224 177.979 10.2169C178.109 9.98997 178.295 9.80191 178.518 9.67124C178.741 9.54057 178.992 9.4718 179.249 9.47167C179.42 9.46014 179.592 9.48516 179.754 9.54518C179.915 9.6052 180.063 9.69892 180.188 9.82047C180.407 10.053 180.517 10.4108 180.517 10.8937V13.7977H179.825V11.1345C179.834 10.9261 179.811 10.7176 179.756 10.5167C179.709 10.3913 179.622 10.286 179.51 10.2178C179.385 10.1384 179.24 10.098 179.093 10.1015C178.959 10.0969 178.825 10.121 178.701 10.1724C178.576 10.2237 178.463 10.3011 178.369 10.3996C178.176 10.5984 178.079 10.9149 178.079 11.3492V13.8074H177.384V11.051C177.401 10.7994 177.341 10.5486 177.212 10.334C177.146 10.2507 177.06 10.1855 176.963 10.1439C176.866 10.1024 176.761 10.0857 176.656 10.0955C176.464 10.0942 176.275 10.1493 176.112 10.2544C175.943 10.3626 175.815 10.5273 175.75 10.7209C175.665 11.007 175.627 11.3059 175.639 11.6049V13.7993L174.949 13.8Z" fill="white" fill-opacity="0.9"/>
</g>
<g id="Group_13" filter="url(#filter12_d_513_1763)">
<path id="Trazado 12" d="M185.547 13.2769C185.327 13.4786 185.075 13.6404 184.803 13.7555C184.557 13.8491 184.296 13.8961 184.034 13.8941C183.658 13.9198 183.286 13.7984 182.993 13.5543C182.874 13.4451 182.781 13.3106 182.718 13.1603C182.655 13.0099 182.625 12.8473 182.629 12.6837C182.63 12.4847 182.679 12.2892 182.774 12.1158C182.86 11.9505 182.983 11.8093 183.134 11.7043C183.287 11.5978 183.457 11.5182 183.635 11.4688C183.839 11.4196 184.045 11.3837 184.253 11.3615C184.674 11.3212 185.09 11.2385 185.496 11.1144V10.928C185.507 10.8164 185.496 10.7035 185.462 10.5969C185.427 10.4903 185.371 10.3925 185.297 10.3101C185.071 10.1326 184.789 10.0462 184.505 10.0672C184.252 10.0482 183.999 10.1098 183.781 10.2438C183.601 10.4068 183.479 10.6279 183.435 10.8713L182.755 10.776C182.801 10.5126 182.906 10.2637 183.06 10.0485C183.223 9.84974 183.436 9.702 183.676 9.62223C183.976 9.51806 184.291 9.46767 184.608 9.47325C184.898 9.46395 185.188 9.50733 185.464 9.6014C185.649 9.66352 185.816 9.77395 185.947 9.92197C186.057 10.0641 186.131 10.2314 186.163 10.4095C186.192 10.6288 186.203 10.8502 186.197 11.0715V12.027C186.187 12.4494 186.202 12.8721 186.242 13.2927C186.273 13.4707 186.332 13.6421 186.419 13.7995H185.695C185.615 13.6363 185.564 13.4595 185.546 13.2777L185.547 13.2769ZM185.489 11.6759C185.121 11.8104 184.739 11.9015 184.351 11.9472C184.144 11.9714 183.94 12.0214 183.744 12.0962C183.649 12.1375 183.565 12.2032 183.501 12.2871C183.438 12.371 183.396 12.4703 183.38 12.5756C183.364 12.6809 183.374 12.7887 183.41 12.8887C183.445 12.9887 183.505 13.0777 183.584 13.1472C183.759 13.2873 183.979 13.3557 184.201 13.3394C184.451 13.3436 184.698 13.2809 184.918 13.1576C185.118 13.0463 185.278 12.8725 185.377 12.6612C185.463 12.4332 185.502 12.1888 185.49 11.9442L185.489 11.6759Z" fill="white" fill-opacity="0.9"/>
</g>
<g id="Group_14" filter="url(#filter13_d_513_1763)">
<path id="Trazado 13" d="M191.269 12.2508L191.954 12.3417C191.902 12.7821 191.696 13.188 191.375 13.4837C191.059 13.7608 190.654 13.9075 190.24 13.8951C189.988 13.9058 189.736 13.8607 189.503 13.763C189.269 13.6653 189.058 13.5172 188.885 13.3287C188.542 12.9501 188.371 12.4075 188.371 11.7008C188.363 11.2917 188.438 10.8854 188.592 10.5082C188.725 10.1808 188.961 9.90888 189.263 9.73609C189.563 9.56583 189.901 9.4776 190.244 9.47978C190.637 9.46252 191.023 9.58543 191.338 9.8277C191.632 10.0774 191.826 10.4297 191.884 10.8175L191.206 10.9248C191.163 10.6786 191.043 10.4537 190.864 10.2838C190.698 10.1397 190.486 10.0633 190.269 10.0692C190.108 10.0638 189.947 10.0959 189.799 10.1631C189.651 10.2303 189.52 10.3309 189.415 10.4575C189.195 10.7168 189.086 11.1269 189.086 11.6874C189.086 12.2478 189.192 12.6683 189.403 12.9262C189.504 13.0511 189.631 13.1508 189.774 13.2177C189.918 13.2846 190.074 13.3169 190.231 13.3123C190.484 13.3202 190.729 13.2273 190.916 13.0529C191.122 12.8364 191.246 12.5525 191.269 12.2508Z" fill="white" fill-opacity="0.9"/>
</g>
<g id="Group_15" filter="url(#filter14_d_513_1763)">
<path id="Trazado 14" d="M193.868 8.78444V7.96008H194.568V8.78444H193.868ZM193.868 13.7991V9.56855H194.568V13.7991H193.868Z" fill="white" fill-opacity="0.9"/>
</g>
<g id="Group_16" filter="url(#filter15_d_513_1763)">
<path id="Trazado 15" d="M196.68 11.6828C196.68 10.9001 196.891 10.3188 197.315 9.94315C197.674 9.62665 198.134 9.45873 198.607 9.47201C198.864 9.46274 199.12 9.50887 199.358 9.60745C199.597 9.70604 199.813 9.8549 199.993 10.0445C200.351 10.4251 200.53 10.9513 200.53 11.6231C200.55 12.0647 200.469 12.5051 200.292 12.908C200.137 13.2159 199.896 13.4692 199.6 13.6355C199.296 13.8076 198.954 13.8964 198.607 13.8934C198.349 13.9043 198.091 13.8593 197.851 13.7613C197.611 13.6633 197.394 13.5145 197.213 13.3244C196.857 12.9447 196.68 12.3975 196.68 11.6828ZM197.404 11.6828C197.404 12.2254 197.518 12.6314 197.748 12.9008C197.856 13.0281 197.988 13.1302 198.138 13.2002C198.287 13.2701 198.449 13.3064 198.613 13.3064C198.776 13.3064 198.938 13.2701 199.088 13.2002C199.237 13.1302 199.369 13.0281 199.477 12.9008C199.708 12.6301 199.823 12.2172 199.822 11.6619C199.822 11.1392 199.706 10.7417 199.476 10.4694C199.368 10.3425 199.235 10.2408 199.086 10.1711C198.937 10.1014 198.776 10.0653 198.612 10.0653C198.448 10.0653 198.287 10.1014 198.138 10.1711C197.989 10.2408 197.856 10.3425 197.748 10.4694C197.514 10.7367 197.396 11.1412 197.396 11.6828H197.404ZM198.227 9.04271L198.741 7.92621H199.655L198.803 9.04271H198.227Z" fill="white" fill-opacity="0.9"/>
</g>
<g id="Group_17" filter="url(#filter16_d_513_1763)">
<path id="Trazado 16" d="M202.663 13.7993V9.56875H203.29V10.1649C203.429 9.94155 203.623 9.75965 203.851 9.63726C204.08 9.51486 204.336 9.45625 204.593 9.46725C204.827 9.46474 205.059 9.51141 205.275 9.60441C205.46 9.67791 205.621 9.80282 205.741 9.96522C205.85 10.124 205.924 10.305 205.958 10.4958C205.991 10.7263 206.004 10.9593 205.998 11.192V13.7933H205.302V11.2265C205.311 11.0047 205.284 10.7828 205.221 10.5705C205.165 10.4249 205.063 10.3031 204.931 10.2247C204.784 10.1359 204.615 10.091 204.445 10.095C204.162 10.0917 203.888 10.1981 203.677 10.3931C203.462 10.5869 203.354 10.9546 203.354 11.4962V13.8069L202.663 13.7993Z" fill="white" fill-opacity="0.9"/>
</g>
</g>
<g id="Grupo 5">
<g id="Group_18" filter="url(#filter17_d_513_1763)">
<path id="Trazado 17" d="M140.229 22.7038V22.1742C140.109 22.3757 139.94 22.5406 139.738 22.6515C139.535 22.7624 139.308 22.8154 139.079 22.8047C138.757 22.8062 138.443 22.7086 138.175 22.5244C137.896 22.3322 137.674 22.0624 137.537 21.7463C137.38 21.385 137.303 20.9925 137.311 20.597C137.306 20.2037 137.376 19.8131 137.517 19.4476C137.637 19.1248 137.852 18.8487 138.132 18.6575C138.404 18.4743 138.723 18.3784 139.049 18.3818C139.279 18.3773 139.507 18.4332 139.71 18.5442C139.897 18.6457 140.058 18.7894 140.182 18.9645V16.8639H140.875V22.7029L140.229 22.7038ZM138.028 20.5929C138.028 21.1356 138.138 21.5394 138.359 21.8079C138.452 21.932 138.571 22.0327 138.707 22.1024C138.844 22.1722 138.994 22.2091 139.146 22.2104C139.295 22.2109 139.442 22.1765 139.577 22.1099C139.711 22.0433 139.829 21.9461 139.922 21.8258C140.133 21.5694 140.24 21.1788 140.24 20.6526C140.24 20.0742 140.132 19.6494 139.916 19.3781C139.822 19.2511 139.7 19.1483 139.561 19.0777C139.422 19.0071 139.269 18.9707 139.114 18.9712C138.964 18.9701 138.816 19.0048 138.682 19.0726C138.547 19.1404 138.43 19.2394 138.339 19.3619C138.13 19.6221 138.028 20.0325 138.028 20.5929Z" fill="white" fill-opacity="0.9"/>
</g>
<g id="Group_19" filter="url(#filter18_d_513_1763)">
<path id="Trazado 18" d="M143.29 17.6891V16.8648H143.986V17.6891H143.29ZM143.29 22.7038V18.4747H143.986V22.7038H143.29Z" fill="white" fill-opacity="0.9"/>
</g>
<g id="Group_20" filter="url(#filter19_d_513_1763)">
<path id="Trazado 19" d="M146.234 23.0551L146.911 23.158C146.917 23.2487 146.941 23.3373 146.982 23.4181C147.023 23.4989 147.079 23.5702 147.148 23.6275C147.356 23.7721 147.605 23.8423 147.856 23.8273C148.119 23.8445 148.381 23.7745 148.603 23.6275C148.782 23.4902 148.909 23.2923 148.96 23.0685C149.006 22.7643 149.023 22.4563 149.01 22.1488C148.874 22.3242 148.7 22.4652 148.503 22.5611C148.306 22.6569 148.09 22.7051 147.872 22.7018C147.62 22.715 147.369 22.6645 147.141 22.5548C146.912 22.4452 146.713 22.2797 146.561 22.0727C146.246 21.6372 146.083 21.1054 146.097 20.5626C146.093 20.1794 146.165 19.7994 146.309 19.4461C146.435 19.1255 146.65 18.8501 146.927 18.6545C147.209 18.4654 147.54 18.3682 147.876 18.3758C148.109 18.3724 148.339 18.4256 148.547 18.5311C148.756 18.6365 148.937 18.7912 149.077 18.9825V18.4727H149.718V22.1294C149.718 22.7867 149.653 23.2549 149.523 23.5292C149.388 23.8081 149.172 24.0361 148.904 24.1806C148.582 24.3492 148.223 24.4313 147.862 24.419C147.44 24.4398 147.024 24.3207 146.673 24.0792C146.521 23.9611 146.401 23.8051 146.324 23.6259C146.247 23.4466 146.216 23.2502 146.234 23.0551ZM146.813 20.5209C146.813 21.0754 146.92 21.4804 147.135 21.7359C147.232 21.8582 147.355 21.9562 147.495 22.0223C147.634 22.0884 147.787 22.121 147.94 22.1176C148.094 22.1199 148.246 22.087 148.385 22.0213C148.524 21.9555 148.648 21.8586 148.746 21.7375C148.963 21.484 149.071 21.0861 149.071 20.5449C149.071 20.0037 148.959 19.6371 148.736 19.3732C148.639 19.2497 148.516 19.1501 148.377 19.0818C148.237 19.0134 148.085 18.978 147.93 18.9781C147.779 18.9773 147.629 19.0118 147.493 19.079C147.356 19.1463 147.236 19.2446 147.142 19.3665C146.922 19.6209 146.813 20.003 146.813 20.5128L146.813 20.5209Z" fill="white" fill-opacity="0.9"/>
</g>
<g id="Group_21" filter="url(#filter20_d_513_1763)">
<path id="Trazado 20" d="M152.087 17.6891V16.8648H152.783V17.6891H152.087ZM152.087 22.7038V18.4747H152.783V22.7038H152.087Z" fill="white" fill-opacity="0.9"/>
</g>
<g id="Group_22" filter="url(#filter21_d_513_1763)">
<path id="Trazado 21" d="M156.68 22.0632L156.781 22.6967C156.608 22.7369 156.432 22.7584 156.254 22.7608C156.051 22.7719 155.849 22.7294 155.666 22.6372C155.538 22.5644 155.436 22.4503 155.377 22.3123C155.302 22.0368 155.273 21.7503 155.291 21.465V19.0325H154.78V18.475H155.291V17.4316L155.984 17.0007V18.4794H156.684V19.0369H155.984V21.51C155.976 21.6429 155.988 21.7763 156.021 21.905C156.046 21.9632 156.088 22.0117 156.141 22.0436C156.214 22.0829 156.296 22.1012 156.379 22.0965C156.48 22.0927 156.58 22.0816 156.68 22.0632Z" fill="white" fill-opacity="0.9"/>
</g>
<g id="Group_23" filter="url(#filter22_d_513_1763)">
<path id="Trazado 22" d="M161.359 22.182C161.14 22.3845 160.887 22.5464 160.614 22.6605C160.368 22.7549 160.108 22.8024 159.846 22.8007C159.47 22.8265 159.098 22.7046 158.805 22.4593C158.687 22.3501 158.593 22.2157 158.53 22.0653C158.467 21.9149 158.437 21.7523 158.442 21.5887C158.441 21.3897 158.491 21.194 158.587 21.0208C158.672 20.8559 158.795 20.7147 158.946 20.6093C159.099 20.5033 159.268 20.4238 159.447 20.3739C159.651 20.3246 159.858 20.2888 160.066 20.2665C160.487 20.2269 160.903 20.1441 161.308 20.0194C161.308 19.9211 161.308 19.8605 161.308 19.833C161.321 19.7215 161.309 19.6086 161.275 19.502C161.241 19.3954 161.186 19.2976 161.112 19.2152C160.885 19.0358 160.603 18.9487 160.318 18.9707C160.065 18.9515 159.812 19.0131 159.594 19.1472C159.413 19.3099 159.291 19.5312 159.248 19.7747L158.568 19.6794C158.614 19.4162 158.718 19.1676 158.873 18.953C159.035 18.7544 159.249 18.6071 159.489 18.5281C159.789 18.4233 160.104 18.3728 160.421 18.3792C160.711 18.3697 161 18.4131 161.275 18.5073C161.461 18.5692 161.627 18.6796 161.759 18.8279C161.868 18.9701 161.942 19.1373 161.976 19.3153C162.005 19.5346 162.016 19.756 162.01 19.9772V20.9318C161.999 21.3543 162.014 21.777 162.055 22.1975C162.085 22.3755 162.144 22.5469 162.23 22.7043H161.506C161.427 22.541 161.377 22.3639 161.359 22.182ZM161.302 20.5809C160.934 20.7162 160.552 20.8073 160.163 20.8522C159.956 20.877 159.752 20.927 159.555 21.0012C159.443 21.0488 159.348 21.1298 159.281 21.2337C159.201 21.3618 159.169 21.515 159.19 21.6656C159.211 21.8161 159.284 21.9539 159.395 22.0536C159.572 22.1926 159.791 22.2604 160.013 22.2445C160.262 22.249 160.509 22.1863 160.728 22.0627C160.928 21.9509 161.089 21.7773 161.188 21.5663C161.275 21.3387 161.314 21.0947 161.301 20.8506L161.302 20.5809Z" fill="white" fill-opacity="0.9"/>
</g>
<g id="Group_24" filter="url(#filter23_d_513_1763)">
<path id="Trazado 23" d="M164.384 22.7038V16.8648H165.08V22.7038H164.384Z" fill="white" fill-opacity="0.9"/>
</g>
</g>
</g>
<defs>
<filter id="filter0_d_513_1763" x="0" y="14.0143" width="18.2373" height="18.4219" filterUnits="userSpaceOnUse" color-interpolation-filters="sRGB">
<feFlood flood-opacity="0" result="BackgroundImageFix"/>
<feColorMatrix in="SourceAlpha" type="matrix" values="0 0 0 0 0 0 0 0 0 0 0 0 0 0 0 0 0 0 127 0" result="hardAlpha"/>
<feOffset dy="3"/>
<feGaussianBlur stdDeviation="3"/>
<feColorMatrix type="matrix" values="0 0 0 0 0 0 0 0 0 0 0 0 0 0 0 0 0 0 0.161 0"/>
<feBlend mode="normal" in2="BackgroundImageFix" result="effect1_dropShadow_513_1763"/>
<feBlend mode="normal" in="SourceGraphic" in2="effect1_dropShadow_513_1763" result="shape"/>
</filter>
<filter id="filter1_d_513_1763" x="4.55176" y="2.51923" width="114.933" height="34.1411" filterUnits="userSpaceOnUse" color-interpolation-filters="sRGB">
<feFlood flood-opacity="0" result="BackgroundImageFix"/>
<feColorMatrix in="SourceAlpha" type="matrix" values="0 0 0 0 0 0 0 0 0 0 0 0 0 0 0 0 0 0 127 0" result="hardAlpha"/>
<feOffset dy="3"/>
<feGaussianBlur stdDeviation="3"/>
<feColorMatrix type="matrix" values="0 0 0 0 0 0 0 0 0 0 0 0 0 0 0 0 0 0 0.161 0"/>
<feBlend mode="normal" in2="BackgroundImageFix" result="effect1_dropShadow_513_1763"/>
<feBlend mode="normal" in="SourceGraphic" in2="effect1_dropShadow_513_1763" result="shape"/>
</filter>
<filter id="filter2_d_513_1763" x="118.328" y="0.5" width="13" height="37.7009" filterUnits="userSpaceOnUse" color-interpolation-filters="sRGB">
<feFlood flood-opacity="0" result="BackgroundImageFix"/>
<feColorMatrix in="SourceAlpha" type="matrix" values="0 0 0 0 0 0 0 0 0 0 0 0 0 0 0 0 0 0 127 0" result="hardAlpha"/>
<feOffset dy="3"/>
<feGaussianBlur stdDeviation="3"/>
<feColorMatrix type="matrix" values="0 0 0 0 0 0 0 0 0 0 0 0 0 0 0 0 0 0 0.161 0"/>
<feBlend mode="normal" in2="BackgroundImageFix" result="effect1_dropShadow_513_1763"/>
<feBlend mode="normal" in="SourceGraphic" in2="effect1_dropShadow_513_1763" result="shape"/>
</filter>
<filter id="filter3_d_513_1763" x="131.184" y="5.09073" width="14.001" height="17.7662" filterUnits="userSpaceOnUse" color-interpolation-filters="sRGB">
<feFlood flood-opacity="0" result="BackgroundImageFix"/>
<feColorMatrix in="SourceAlpha" type="matrix" values="0 0 0 0 0 0 0 0 0 0 0 0 0 0 0 0 0 0 127 0" result="hardAlpha"/>
<feOffset dy="3"/>
<feGaussianBlur stdDeviation="3"/>
<feColorMatrix type="matrix" values="0 0 0 0 0 0 0 0 0 0 0 0 0 0 0 0 0 0 0.161 0"/>
<feBlend mode="normal" in2="BackgroundImageFix" result="effect1_dropShadow_513_1763"/>
<feBlend mode="normal" in="SourceGraphic" in2="effect1_dropShadow_513_1763" result="shape"/>
</filter>
<filter id="filter4_d_513_1763" x="135.07" y="6.466" width="14.2324" height="16.3333" filterUnits="userSpaceOnUse" color-interpolation-filters="sRGB">
<feFlood flood-opacity="0" result="BackgroundImageFix"/>
<feColorMatrix in="SourceAlpha" type="matrix" values="0 0 0 0 0 0 0 0 0 0 0 0 0 0 0 0 0 0 127 0" result="hardAlpha"/>
<feOffset dy="3"/>
<feGaussianBlur stdDeviation="3"/>
<feColorMatrix type="matrix" values="0 0 0 0 0 0 0 0 0 0 0 0 0 0 0 0 0 0 0.161 0"/>
<feBlend mode="normal" in2="BackgroundImageFix" result="effect1_dropShadow_513_1763"/>
<feBlend mode="normal" in="SourceGraphic" in2="effect1_dropShadow_513_1763" result="shape"/>
</filter>
<filter id="filter5_d_513_1763" x="138.797" y="6.4718" width="15.7822" height="16.4257" filterUnits="userSpaceOnUse" color-interpolation-filters="sRGB">
<feFlood flood-opacity="0" result="BackgroundImageFix"/>
<feColorMatrix in="SourceAlpha" type="matrix" values="0 0 0 0 0 0 0 0 0 0 0 0 0 0 0 0 0 0 127 0" result="hardAlpha"/>
<feOffset dy="3"/>
<feGaussianBlur stdDeviation="3"/>
<feColorMatrix type="matrix" values="0 0 0 0 0 0 0 0 0 0 0 0 0 0 0 0 0 0 0.161 0"/>
<feBlend mode="normal" in2="BackgroundImageFix" result="effect1_dropShadow_513_1763"/>
<feBlend mode="normal" in="SourceGraphic" in2="effect1_dropShadow_513_1763" result="shape"/>
</filter>
<filter id="filter6_d_513_1763" x="144.756" y="6.46594" width="15.3359" height="16.3409" filterUnits="userSpaceOnUse" color-interpolation-filters="sRGB">
<feFlood flood-opacity="0" result="BackgroundImageFix"/>
<feColorMatrix in="SourceAlpha" type="matrix" values="0 0 0 0 0 0 0 0 0 0 0 0 0 0 0 0 0 0 127 0" result="hardAlpha"/>
<feOffset dy="3"/>
<feGaussianBlur stdDeviation="3"/>
<feColorMatrix type="matrix" values="0 0 0 0 0 0 0 0 0 0 0 0 0 0 0 0 0 0 0.161 0"/>
<feBlend mode="normal" in2="BackgroundImageFix" result="effect1_dropShadow_513_1763"/>
<feBlend mode="normal" in="SourceGraphic" in2="effect1_dropShadow_513_1763" result="shape"/>
</filter>
<filter id="filter7_d_513_1763" x="150.197" y="6.47623" width="15.4219" height="16.4212" filterUnits="userSpaceOnUse" color-interpolation-filters="sRGB">
<feFlood flood-opacity="0" result="BackgroundImageFix"/>
<feColorMatrix in="SourceAlpha" type="matrix" values="0 0 0 0 0 0 0 0 0 0 0 0 0 0 0 0 0 0 127 0" result="hardAlpha"/>
<feOffset dy="3"/>
<feGaussianBlur stdDeviation="3"/>
<feColorMatrix type="matrix" values="0 0 0 0 0 0 0 0 0 0 0 0 0 0 0 0 0 0 0.161 0"/>
<feBlend mode="normal" in2="BackgroundImageFix" result="effect1_dropShadow_513_1763"/>
<feBlend mode="normal" in="SourceGraphic" in2="effect1_dropShadow_513_1763" result="shape"/>
</filter>
<filter id="filter8_d_513_1763" x="155.307" y="4.86624" width="14.4023" height="17.9413" filterUnits="userSpaceOnUse" color-interpolation-filters="sRGB">
<feFlood flood-opacity="0" result="BackgroundImageFix"/>
<feColorMatrix in="SourceAlpha" type="matrix" values="0 0 0 0 0 0 0 0 0 0 0 0 0 0 0 0 0 0 127 0" result="hardAlpha"/>
<feOffset dy="3"/>
<feGaussianBlur stdDeviation="3"/>
<feColorMatrix type="matrix" values="0 0 0 0 0 0 0 0 0 0 0 0 0 0 0 0 0 0 0.161 0"/>
<feBlend mode="normal" in2="BackgroundImageFix" result="effect1_dropShadow_513_1763"/>
<feBlend mode="normal" in="SourceGraphic" in2="effect1_dropShadow_513_1763" result="shape"/>
</filter>
<filter id="filter9_d_513_1763" x="159.014" y="6.47134" width="15.8535" height="16.4242" filterUnits="userSpaceOnUse" color-interpolation-filters="sRGB">
<feFlood flood-opacity="0" result="BackgroundImageFix"/>
<feColorMatrix in="SourceAlpha" type="matrix" values="0 0 0 0 0 0 0 0 0 0 0 0 0 0 0 0 0 0 127 0" result="hardAlpha"/>
<feOffset dy="3"/>
<feGaussianBlur stdDeviation="3"/>
<feColorMatrix type="matrix" values="0 0 0 0 0 0 0 0 0 0 0 0 0 0 0 0 0 0 0.161 0"/>
<feBlend mode="normal" in2="BackgroundImageFix" result="effect1_dropShadow_513_1763"/>
<feBlend mode="normal" in="SourceGraphic" in2="effect1_dropShadow_513_1763" result="shape"/>
</filter>
<filter id="filter10_d_513_1763" x="164.987" y="6.466" width="14.2324" height="16.3333" filterUnits="userSpaceOnUse" color-interpolation-filters="sRGB">
<feFlood flood-opacity="0" result="BackgroundImageFix"/>
<feColorMatrix in="SourceAlpha" type="matrix" values="0 0 0 0 0 0 0 0 0 0 0 0 0 0 0 0 0 0 127 0" result="hardAlpha"/>
<feOffset dy="3"/>
<feGaussianBlur stdDeviation="3"/>
<feColorMatrix type="matrix" values="0 0 0 0 0 0 0 0 0 0 0 0 0 0 0 0 0 0 0.161 0"/>
<feBlend mode="normal" in2="BackgroundImageFix" result="effect1_dropShadow_513_1763"/>
<feBlend mode="normal" in="SourceGraphic" in2="effect1_dropShadow_513_1763" result="shape"/>
</filter>
<filter id="filter11_d_513_1763" x="168.949" y="6.46893" width="17.5674" height="16.3385" filterUnits="userSpaceOnUse" color-interpolation-filters="sRGB">
<feFlood flood-opacity="0" result="BackgroundImageFix"/>
<feColorMatrix in="SourceAlpha" type="matrix" values="0 0 0 0 0 0 0 0 0 0 0 0 0 0 0 0 0 0 127 0" result="hardAlpha"/>
<feOffset dy="3"/>
<feGaussianBlur stdDeviation="3"/>
<feColorMatrix type="matrix" values="0 0 0 0 0 0 0 0 0 0 0 0 0 0 0 0 0 0 0.161 0"/>
<feBlend mode="normal" in2="BackgroundImageFix" result="effect1_dropShadow_513_1763"/>
<feBlend mode="normal" in="SourceGraphic" in2="effect1_dropShadow_513_1763" result="shape"/>
</filter>
<filter id="filter12_d_513_1763" x="176.629" y="6.47202" width="15.79" height="16.4254" filterUnits="userSpaceOnUse" color-interpolation-filters="sRGB">
<feFlood flood-opacity="0" result="BackgroundImageFix"/>
<feColorMatrix in="SourceAlpha" type="matrix" values="0 0 0 0 0 0 0 0 0 0 0 0 0 0 0 0 0 0 127 0" result="hardAlpha"/>
<feOffset dy="3"/>
<feGaussianBlur stdDeviation="3"/>
<feColorMatrix type="matrix" values="0 0 0 0 0 0 0 0 0 0 0 0 0 0 0 0 0 0 0.161 0"/>
<feBlend mode="normal" in2="BackgroundImageFix" result="effect1_dropShadow_513_1763"/>
<feBlend mode="normal" in="SourceGraphic" in2="effect1_dropShadow_513_1763" result="shape"/>
</filter>
<filter id="filter13_d_513_1763" x="182.37" y="6.47818" width="15.584" height="16.4185" filterUnits="userSpaceOnUse" color-interpolation-filters="sRGB">
<feFlood flood-opacity="0" result="BackgroundImageFix"/>
<feColorMatrix in="SourceAlpha" type="matrix" values="0 0 0 0 0 0 0 0 0 0 0 0 0 0 0 0 0 0 127 0" result="hardAlpha"/>
<feOffset dy="3"/>
<feGaussianBlur stdDeviation="3"/>
<feColorMatrix type="matrix" values="0 0 0 0 0 0 0 0 0 0 0 0 0 0 0 0 0 0 0.161 0"/>
<feBlend mode="normal" in2="BackgroundImageFix" result="effect1_dropShadow_513_1763"/>
<feBlend mode="normal" in="SourceGraphic" in2="effect1_dropShadow_513_1763" result="shape"/>
</filter>
<filter id="filter14_d_513_1763" x="187.868" y="4.96008" width="12.6992" height="17.839" filterUnits="userSpaceOnUse" color-interpolation-filters="sRGB">
<feFlood flood-opacity="0" result="BackgroundImageFix"/>
<feColorMatrix in="SourceAlpha" type="matrix" values="0 0 0 0 0 0 0 0 0 0 0 0 0 0 0 0 0 0 127 0" result="hardAlpha"/>
<feOffset dy="3"/>
<feGaussianBlur stdDeviation="3"/>
<feColorMatrix type="matrix" values="0 0 0 0 0 0 0 0 0 0 0 0 0 0 0 0 0 0 0.161 0"/>
<feBlend mode="normal" in2="BackgroundImageFix" result="effect1_dropShadow_513_1763"/>
<feBlend mode="normal" in="SourceGraphic" in2="effect1_dropShadow_513_1763" result="shape"/>
</filter>
<filter id="filter15_d_513_1763" x="190.68" y="4.92621" width="15.8535" height="17.9688" filterUnits="userSpaceOnUse" color-interpolation-filters="sRGB">
<feFlood flood-opacity="0" result="BackgroundImageFix"/>
<feColorMatrix in="SourceAlpha" type="matrix" values="0 0 0 0 0 0 0 0 0 0 0 0 0 0 0 0 0 0 127 0" result="hardAlpha"/>
<feOffset dy="3"/>
<feGaussianBlur stdDeviation="3"/>
<feColorMatrix type="matrix" values="0 0 0 0 0 0 0 0 0 0 0 0 0 0 0 0 0 0 0.161 0"/>
<feBlend mode="normal" in2="BackgroundImageFix" result="effect1_dropShadow_513_1763"/>
<feBlend mode="normal" in="SourceGraphic" in2="effect1_dropShadow_513_1763" result="shape"/>
</filter>
<filter id="filter16_d_513_1763" x="196.663" y="6.46594" width="15.3359" height="16.3409" filterUnits="userSpaceOnUse" color-interpolation-filters="sRGB">
<feFlood flood-opacity="0" result="BackgroundImageFix"/>
<feColorMatrix in="SourceAlpha" type="matrix" values="0 0 0 0 0 0 0 0 0 0 0 0 0 0 0 0 0 0 127 0" result="hardAlpha"/>
<feOffset dy="3"/>
<feGaussianBlur stdDeviation="3"/>
<feColorMatrix type="matrix" values="0 0 0 0 0 0 0 0 0 0 0 0 0 0 0 0 0 0 0.161 0"/>
<feBlend mode="normal" in2="BackgroundImageFix" result="effect1_dropShadow_513_1763"/>
<feBlend mode="normal" in="SourceGraphic" in2="effect1_dropShadow_513_1763" result="shape"/>
</filter>
<filter id="filter17_d_513_1763" x="131.311" y="13.8639" width="15.5645" height="17.9422" filterUnits="userSpaceOnUse" color-interpolation-filters="sRGB">
<feFlood flood-opacity="0" result="BackgroundImageFix"/>
<feColorMatrix in="SourceAlpha" type="matrix" values="0 0 0 0 0 0 0 0 0 0 0 0 0 0 0 0 0 0 127 0" result="hardAlpha"/>
<feOffset dy="3"/>
<feGaussianBlur stdDeviation="3"/>
<feColorMatrix type="matrix" values="0 0 0 0 0 0 0 0 0 0 0 0 0 0 0 0 0 0 0.161 0"/>
<feBlend mode="normal" in2="BackgroundImageFix" result="effect1_dropShadow_513_1763"/>
<feBlend mode="normal" in="SourceGraphic" in2="effect1_dropShadow_513_1763" result="shape"/>
</filter>
<filter id="filter18_d_513_1763" x="137.29" y="13.8648" width="12.6963" height="17.839" filterUnits="userSpaceOnUse" color-interpolation-filters="sRGB">
<feFlood flood-opacity="0" result="BackgroundImageFix"/>
<feColorMatrix in="SourceAlpha" type="matrix" values="0 0 0 0 0 0 0 0 0 0 0 0 0 0 0 0 0 0 127 0" result="hardAlpha"/>
<feOffset dy="3"/>
<feGaussianBlur stdDeviation="3"/>
<feColorMatrix type="matrix" values="0 0 0 0 0 0 0 0 0 0 0 0 0 0 0 0 0 0 0.161 0"/>
<feBlend mode="normal" in2="BackgroundImageFix" result="effect1_dropShadow_513_1763"/>
<feBlend mode="normal" in="SourceGraphic" in2="effect1_dropShadow_513_1763" result="shape"/>
</filter>
<filter id="filter19_d_513_1763" x="140.096" y="15.3754" width="15.6221" height="18.046" filterUnits="userSpaceOnUse" color-interpolation-filters="sRGB">
<feFlood flood-opacity="0" result="BackgroundImageFix"/>
<feColorMatrix in="SourceAlpha" type="matrix" values="0 0 0 0 0 0 0 0 0 0 0 0 0 0 0 0 0 0 127 0" result="hardAlpha"/>
<feOffset dy="3"/>
<feGaussianBlur stdDeviation="3"/>
<feColorMatrix type="matrix" values="0 0 0 0 0 0 0 0 0 0 0 0 0 0 0 0 0 0 0.161 0"/>
<feBlend mode="normal" in2="BackgroundImageFix" result="effect1_dropShadow_513_1763"/>
<feBlend mode="normal" in="SourceGraphic" in2="effect1_dropShadow_513_1763" result="shape"/>
</filter>
<filter id="filter20_d_513_1763" x="146.087" y="13.8648" width="12.6963" height="17.839" filterUnits="userSpaceOnUse" color-interpolation-filters="sRGB">
<feFlood flood-opacity="0" result="BackgroundImageFix"/>
<feColorMatrix in="SourceAlpha" type="matrix" values="0 0 0 0 0 0 0 0 0 0 0 0 0 0 0 0 0 0 127 0" result="hardAlpha"/>
<feOffset dy="3"/>
<feGaussianBlur stdDeviation="3"/>
<feColorMatrix type="matrix" values="0 0 0 0 0 0 0 0 0 0 0 0 0 0 0 0 0 0 0.161 0"/>
<feBlend mode="normal" in2="BackgroundImageFix" result="effect1_dropShadow_513_1763"/>
<feBlend mode="normal" in="SourceGraphic" in2="effect1_dropShadow_513_1763" result="shape"/>
</filter>
<filter id="filter21_d_513_1763" x="148.78" y="14.0007" width="14.001" height="17.7618" filterUnits="userSpaceOnUse" color-interpolation-filters="sRGB">
<feFlood flood-opacity="0" result="BackgroundImageFix"/>
<feColorMatrix in="SourceAlpha" type="matrix" values="0 0 0 0 0 0 0 0 0 0 0 0 0 0 0 0 0 0 127 0" result="hardAlpha"/>
<feOffset dy="3"/>
<feGaussianBlur stdDeviation="3"/>
<feColorMatrix type="matrix" values="0 0 0 0 0 0 0 0 0 0 0 0 0 0 0 0 0 0 0.161 0"/>
<feBlend mode="normal" in2="BackgroundImageFix" result="effect1_dropShadow_513_1763"/>
<feBlend mode="normal" in="SourceGraphic" in2="effect1_dropShadow_513_1763" result="shape"/>
</filter>
<filter id="filter22_d_513_1763" x="152.441" y="15.3779" width="15.7891" height="16.4262" filterUnits="userSpaceOnUse" color-interpolation-filters="sRGB">
<feFlood flood-opacity="0" result="BackgroundImageFix"/>
<feColorMatrix in="SourceAlpha" type="matrix" values="0 0 0 0 0 0 0 0 0 0 0 0 0 0 0 0 0 0 127 0" result="hardAlpha"/>
<feOffset dy="3"/>
<feGaussianBlur stdDeviation="3"/>
<feColorMatrix type="matrix" values="0 0 0 0 0 0 0 0 0 0 0 0 0 0 0 0 0 0 0.161 0"/>
<feBlend mode="normal" in2="BackgroundImageFix" result="effect1_dropShadow_513_1763"/>
<feBlend mode="normal" in="SourceGraphic" in2="effect1_dropShadow_513_1763" result="shape"/>
</filter>
<filter id="filter23_d_513_1763" x="158.384" y="13.8648" width="12.6963" height="17.839" filterUnits="userSpaceOnUse" color-interpolation-filters="sRGB">
<feFlood flood-opacity="0" result="BackgroundImageFix"/>
<feColorMatrix in="SourceAlpha" type="matrix" values="0 0 0 0 0 0 0 0 0 0 0 0 0 0 0 0 0 0 127 0" result="hardAlpha"/>
<feOffset dy="3"/>
<feGaussianBlur stdDeviation="3"/>
<feColorMatrix type="matrix" values="0 0 0 0 0 0 0 0 0 0 0 0 0 0 0 0 0 0 0.161 0"/>
<feBlend mode="normal" in2="BackgroundImageFix" result="effect1_dropShadow_513_1763"/>
<feBlend mode="normal" in="SourceGraphic" in2="effect1_dropShadow_513_1763" result="shape"/>
</filter>
</defs>
</svg>
