<svg width="35" height="35" viewBox="0 0 35 35" fill="none" xmlns="http://www.w3.org/2000/svg">
<g id="Group 1">
<circle id="Ellipse 1" cx="17.5" cy="17.5" r="17.5" fill="url(#paint0_linear_513_1896)" fill-opacity="0.1"/>
<g id="Group" filter="url(#filter0_d_513_1896)">
<path id="Vector" d="M24.9999 10.6666V12.6666C24.9999 13.0333 24.7 13.3332 24.3333 13.3332L10.6667 13.3333C10.3 13.3333 10.0001 13.0334 10.0001 12.6667V10.5C10.0001 10.2167 10.2168 10 10.5001 10H24.3334C24.7001 10 25 10.2999 25 10.6666L24.9999 10.6666ZM24.3333 21.6666H10.5C10.2167 21.6666 10 21.8833 10 22.1666V24.3333C10 24.7 10.2999 24.9999 10.6666 24.9999H24.3332C24.6999 24.9999 24.9998 24.7 24.9998 24.3333L24.9999 22.3332C24.9999 21.9666 24.7 21.6666 24.3333 21.6666L24.3333 21.6666ZM24.3333 15.8333H10.5C10.2167 15.8333 10 16.05 10 16.3333V18.5C10 18.8667 10.2999 19.1666 10.6666 19.1666H24.3332C24.6999 19.1666 24.9998 18.8667 24.9998 18.5L24.9999 16.4999C24.9999 16.1333 24.7 15.8333 24.3333 15.8333L24.3333 15.8333Z" fill="#00F5FC"/>
</g>
</g>
<defs>
<filter id="filter0_d_513_1896" x="8.5" y="8.5" width="19" height="18.9999" filterUnits="userSpaceOnUse" color-interpolation-filters="sRGB">
<feFlood flood-opacity="0" result="BackgroundImageFix"/>
<feColorMatrix in="SourceAlpha" type="matrix" values="0 0 0 0 0 0 0 0 0 0 0 0 0 0 0 0 0 0 127 0" result="hardAlpha"/>
<feOffset dx="0.5" dy="0.5"/>
<feGaussianBlur stdDeviation="1"/>
<feComposite in2="hardAlpha" operator="out"/>
<feColorMatrix type="matrix" values="0 0 0 0 0 0 0 0 0 0.960784 0 0 0 0 0.988235 0 0 0 0.3 0"/>
<feBlend mode="normal" in2="BackgroundImageFix" result="effect1_dropShadow_513_1896"/>
<feBlend mode="normal" in="SourceGraphic" in2="effect1_dropShadow_513_1896" result="shape"/>
</filter>
<linearGradient id="paint0_linear_513_1896" x1="17.5" y1="0" x2="17.5" y2="35" gradientUnits="userSpaceOnUse">
<stop stop-color="#BB9696"/>
<stop offset="1"/>
</linearGradient>
</defs>
</svg>
