<svg width="36" height="35" viewBox="0 0 36 35" fill="none" xmlns="http://www.w3.org/2000/svg">
<g id="Group 1">
<circle id="Ellipse 1" cx="18" cy="17.5" r="17.5" fill="url(#paint0_linear_513_1888)" fill-opacity="0.1"/>
<g id="Group 3" filter="url(#filter0_d_513_1888)">
<g id="Group">
<path id="Vector" d="M15.0781 8.7183V9.7746H21.9233V8.7183C21.2472 8.7183 20.6557 8.59153 20.1909 8H16.8106C16.3459 8.59152 15.7965 8.7183 15.0782 8.7183H15.0781Z" fill="#00F5FC"/>
<path id="Vector_2" d="M14.1902 9.64795H13.6831C13.007 9.64795 12.5 10.1551 12.5 10.7888V23.7184C12.5 24.3522 13.0071 24.8593 13.6831 24.8593H23.3591C23.9929 24.8593 24.5 24.3522 24.5 23.7184V10.7888C24.5 10.1551 23.9929 9.64795 23.3591 9.64795H22.852V9.77472C22.852 10.2818 22.4295 10.662 21.9647 10.662H15.0349C14.5701 10.662 14.1898 10.2817 14.1898 9.77472V9.64795H14.1902ZM18.7536 21.7749C18.5424 21.7749 18.3311 21.5637 18.3311 21.3524C18.3311 21.0989 18.5423 20.9299 18.7536 20.9299H22.2607C22.5142 20.9299 22.6832 21.0989 22.6832 21.3524C22.6832 21.5636 22.5142 21.7749 22.2607 21.7749H18.7536ZM18.7536 18.2679C18.5424 18.2679 18.3311 18.0989 18.3311 17.8454C18.3311 17.6341 18.5423 17.4228 18.7536 17.4228H22.2607C22.5142 17.4228 22.6832 17.634 22.6832 17.8454C22.6832 18.0989 22.5142 18.2679 22.2607 18.2679H18.7536ZM18.7536 14.803C18.5424 14.803 18.3311 14.5918 18.3311 14.3805C18.3311 14.1269 18.5423 13.9157 18.7536 13.9157H22.2607C22.5142 13.9157 22.6832 14.1269 22.6832 14.3805C22.6832 14.5917 22.5142 14.803 22.2607 14.803H18.7536ZM14.3169 21.6482C14.1479 21.4792 14.1479 21.2257 14.3169 21.0567C14.4859 20.8877 14.7395 20.8877 14.9084 21.0567L15.331 21.4792L16.4719 20.3383C16.6408 20.1693 16.8944 20.1693 17.0634 20.3383C17.2324 20.5073 17.2324 20.7609 17.0634 20.9299L15.6267 22.3665C15.4578 22.5355 15.2042 22.5355 15.0352 22.3665L14.3169 21.6482ZM14.3169 18.1411C14.1479 17.9722 14.1479 17.7186 14.3169 17.5496C14.4859 17.3806 14.7395 17.3806 14.9084 17.5496L15.331 17.9722L16.4719 16.8313C16.6408 16.6623 16.8944 16.6623 17.0634 16.8313C17.2324 17.0003 17.2324 17.2538 17.0634 17.4228L15.6267 18.8594C15.4578 19.0284 15.2042 19.0284 15.0352 18.8594L14.3169 18.1411ZM14.3169 14.6762C14.1479 14.5073 14.1479 14.2115 14.3169 14.0425C14.4859 13.8735 14.7395 13.8735 14.9084 14.0425L15.331 14.465L16.4719 13.3242C16.6408 13.1552 16.8944 13.1552 17.0634 13.3242C17.2324 13.4932 17.2324 13.7889 17.0634 13.9579L15.6267 15.3945C15.4578 15.5635 15.2042 15.5635 15.0352 15.3945L14.3169 14.6762Z" fill="#00F5FC"/>
</g>
</g>
</g>
<defs>
<filter id="filter0_d_513_1888" x="11" y="6.5" width="16" height="20.8593" filterUnits="userSpaceOnUse" color-interpolation-filters="sRGB">
<feFlood flood-opacity="0" result="BackgroundImageFix"/>
<feColorMatrix in="SourceAlpha" type="matrix" values="0 0 0 0 0 0 0 0 0 0 0 0 0 0 0 0 0 0 127 0" result="hardAlpha"/>
<feOffset dx="0.5" dy="0.5"/>
<feGaussianBlur stdDeviation="1"/>
<feComposite in2="hardAlpha" operator="out"/>
<feColorMatrix type="matrix" values="0 0 0 0 0 0 0 0 0 0.960784 0 0 0 0 0.988235 0 0 0 0.3 0"/>
<feBlend mode="normal" in2="BackgroundImageFix" result="effect1_dropShadow_513_1888"/>
<feBlend mode="normal" in="SourceGraphic" in2="effect1_dropShadow_513_1888" result="shape"/>
</filter>
<linearGradient id="paint0_linear_513_1888" x1="18" y1="0" x2="18" y2="35" gradientUnits="userSpaceOnUse">
<stop stop-color="#BB9696"/>
<stop offset="1"/>
</linearGradient>
</defs>
</svg>
