<svg width="51" height="35" viewBox="0 0 51 35" fill="none" xmlns="http://www.w3.org/2000/svg">
<g id="Logo_vgroup">
<g id="Layer1 0 FILL">
<g id="Group" filter="url(#filter0_d_513_96)">
<path id="Trazado 1" d="M12.2375 18.2256C12.2375 17.5905 12.0546 16.9697 11.7119 16.4417C11.3692 15.9137 10.8821 15.5021 10.3122 15.2591C9.74236 15.016 9.11529 14.9525 8.51031 15.0763C7.90533 15.2002 7.34962 15.5061 6.91346 15.9551C6.4773 16.4042 6.18026 16.9763 6.05993 17.5992C5.93959 18.222 6.00135 18.8676 6.2374 19.4544C6.47345 20.0411 6.87319 20.5426 7.38606 20.8954C7.89894 21.2482 8.50192 21.4365 9.11875 21.4365C9.94381 21.4296 10.7332 21.0891 11.3166 20.4884C11.9 19.8877 12.2308 19.075 12.2375 18.2256Z" fill="#FFD833" fill-opacity="0.9"/>
</g>
<g id="Group_2" filter="url(#filter1_d_513_96)">
<path id="Trazado 2" d="M29.8624 7.55475C29.3823 8.48484 29.1322 9.5224 29.1343 10.5757C29.1363 11.6289 29.3904 12.6655 29.8741 13.5936C30.353 14.5006 31.0885 15.2362 31.983 15.7028C31.351 16.0409 30.8053 16.5276 30.3903 17.1235C30.024 17.7027 29.8326 18.3806 29.8401 19.0718C29.8228 19.8082 30.108 20.4925 30.6959 21.1245C31.2869 21.7615 32.0554 22.1938 32.8953 22.3618C33.6077 22.5153 34.3272 22.6312 35.0511 22.7092C35.5956 22.7698 36.2642 22.8751 37.0571 23.0252C37.7543 23.1268 38.4357 23.3213 39.0842 23.6036C39.3032 23.696 39.5006 23.8353 39.6634 24.0121L39.6764 24.0255H39.7865C39.8037 24.1388 39.8198 24.258 39.8379 24.3803C39.9001 24.8031 39.9388 25.2291 39.9539 25.6564H44.9774C44.9862 25.2361 44.9946 24.8091 45.0021 24.3803V24.0644C45.0021 23.8974 45.0021 23.7438 44.9905 23.6038H44.9644C44.8993 22.9243 44.626 22.2837 44.184 21.7747C43.6171 21.1522 42.9107 20.6823 42.1265 20.4063C41.2609 20.0937 40.3683 19.8666 39.4609 19.7281C38.515 19.57 37.6291 19.4299 36.8034 19.3078C36.1032 19.2329 35.4132 19.0784 34.7459 18.8472C34.218 18.6485 33.9494 18.3459 33.9401 17.9394C33.9306 17.7391 33.9479 17.5385 33.9915 17.3431C34.0456 17.1416 34.1317 16.9507 34.2463 16.7782C34.5785 16.8915 34.9219 16.9665 35.2701 17.0019C35.6108 17.0356 36.0027 17.0533 36.4457 17.0548C37.6071 17.0595 38.7564 16.8129 39.8193 16.3311C40.8033 15.8712 41.6569 15.1603 42.2995 14.2658C42.9273 13.3398 43.2638 12.2377 43.2638 11.1085C43.2687 10.2852 43.1275 9.46789 42.8471 8.69685C42.6012 8.05855 42.2522 7.46768 41.8148 6.94928C42.1521 6.83327 42.5085 6.78813 42.8631 6.81654C43.2718 6.84003 43.678 6.89735 44.0778 6.98794L45.0002 3.58053C43.5398 3.45626 42.409 3.52187 41.6079 3.77735C40.8806 3.99138 40.2171 4.38962 39.6778 4.93569C39.6181 4.99195 39.5489 5.03641 39.4736 5.06685C39.4222 5.10215 39.3505 5.08927 39.2564 5.02801C38.8323 4.78538 38.3817 4.59524 37.9142 4.46155C37.3126 4.30504 36.6946 4.22542 36.074 4.22448C34.4804 4.24237 33.1725 4.56288 32.1501 5.186C31.1863 5.73833 30.3934 6.55935 29.8624 7.55475ZM37.4162 8.27849C37.8129 8.55434 38.1339 8.93063 38.3485 9.37117C38.555 9.78187 38.6646 10.2369 38.6685 10.6993C38.6598 11.629 38.4083 12.3174 37.9141 12.7646C37.4092 13.2283 36.75 13.4734 36.0739 13.4488C35.2302 13.424 34.5912 13.1259 34.1568 12.5544C33.6986 11.9658 33.4585 11.2288 33.4792 10.4748C33.5034 9.57146 33.7418 8.90909 34.1945 8.48767C34.644 8.0535 35.2406 7.81756 35.8568 7.8303C36.4082 7.81841 36.9509 7.97391 37.417 8.27744M27.5241 4.71169H23.024L19.2277 15.4358H19.1639L15.3298 4.71204H10.5518L17.3902 21.542H20.7203L27.5255 4.71204" fill="white" fill-opacity="0.9"/>
</g>
</g>
</g>
<defs>
<filter id="filter0_d_513_96" x="0" y="12.0146" width="18.2373" height="18.4219" filterUnits="userSpaceOnUse" color-interpolation-filters="sRGB">
<feFlood flood-opacity="0" result="BackgroundImageFix"/>
<feColorMatrix in="SourceAlpha" type="matrix" values="0 0 0 0 0 0 0 0 0 0 0 0 0 0 0 0 0 0 127 0" result="hardAlpha"/>
<feOffset dy="3"/>
<feGaussianBlur stdDeviation="3"/>
<feColorMatrix type="matrix" values="0 0 0 0 0 0 0 0 0 0 0 0 0 0 0 0 0 0 0.161 0"/>
<feBlend mode="normal" in2="BackgroundImageFix" result="effect1_dropShadow_513_96"/>
<feBlend mode="normal" in="SourceGraphic" in2="effect1_dropShadow_513_96" result="shape"/>
</filter>
<filter id="filter1_d_513_96" x="4.55176" y="0.519531" width="46.4502" height="34.1368" filterUnits="userSpaceOnUse" color-interpolation-filters="sRGB">
<feFlood flood-opacity="0" result="BackgroundImageFix"/>
<feColorMatrix in="SourceAlpha" type="matrix" values="0 0 0 0 0 0 0 0 0 0 0 0 0 0 0 0 0 0 127 0" result="hardAlpha"/>
<feOffset dy="3"/>
<feGaussianBlur stdDeviation="3"/>
<feColorMatrix type="matrix" values="0 0 0 0 0 0 0 0 0 0 0 0 0 0 0 0 0 0 0.161 0"/>
<feBlend mode="normal" in2="BackgroundImageFix" result="effect1_dropShadow_513_96"/>
<feBlend mode="normal" in="SourceGraphic" in2="effect1_dropShadow_513_96" result="shape"/>
</filter>
</defs>
</svg>
